inDegrees=no
num_controls=7
num_derivatives=13
num_iterations=162
num_multipliers=7
num_parameters=0
num_slacks=7
num_states=26
objective=5.763141
objective_accelerations=0.509931
objective_balance=0.024796
objective_effort=0.522179
objective_height=4.587065
objective_ligament=0.119169
solver_duration=1724.369143
status=Solve_Succeeded
success=true
DataType=double
version=3
OpenSimVersion=4.4-2022-07-23-0e9fedc
endheader
time	/jointset/ground_pelvis/pelvis_tilt/value	/jointset/ground_pelvis/pelvis_tx/value	/jointset/ground_pelvis/pelvis_ty/value	/jointset/hip_l/hip_flexion_l/value	/jointset/hip_l/hip_adduction_l/value	/jointset/hip_l/hip_rotation_l/value	/jointset/back/lumbar_extension/value	/jointset/patellofemoral_l/patellar_flexion_l/value	/jointset/knee_l/knee_flexion_l/value	/jointset/knee_l/knee_adduction_l/value	/jointset/knee_l/knee_rotation_l/value	/jointset/ankle_l/ankle_angle_l/value	/jointset/subtalar_l/subtalar_angle_l/value	/jointset/ground_pelvis/pelvis_tilt/speed	/jointset/ground_pelvis/pelvis_tx/speed	/jointset/ground_pelvis/pelvis_ty/speed	/jointset/hip_l/hip_flexion_l/speed	/jointset/hip_l/hip_adduction_l/speed	/jointset/hip_l/hip_rotation_l/speed	/jointset/back/lumbar_extension/speed	/jointset/patellofemoral_l/patellar_flexion_l/speed	/jointset/knee_l/knee_flexion_l/speed	/jointset/knee_l/knee_adduction_l/speed	/jointset/knee_l/knee_rotation_l/speed	/jointset/ankle_l/ankle_angle_l/speed	/jointset/subtalar_l/subtalar_angle_l/speed	/forceset/tau_hip_flexion_l	/forceset/tau_hip_adduction_l	/forceset/tau_hip_rotation_l	/forceset/tau_knee_flexion_l	/forceset/tau_ankle_angle_l	/forceset/tau_subtalar_angle_l	/forceset/tau_lumbar_extension	lambda_cid13_p0	lambda_cid13_p1	lambda_cid13_p2	lambda_cid13_p3	lambda_cid13_p4	lambda_cid13_p5	lambda_cid14_p0	/jointset/ground_pelvis/pelvis_tilt/accel	/jointset/ground_pelvis/pelvis_tx/accel	/jointset/ground_pelvis/pelvis_ty/accel	/jointset/hip_l/hip_flexion_l/accel	/jointset/hip_l/hip_adduction_l/accel	/jointset/hip_l/hip_rotation_l/accel	/jointset/back/lumbar_extension/accel	/jointset/patellofemoral_l/patellar_flexion_l/accel	/jointset/knee_l/knee_flexion_l/accel	/jointset/knee_l/knee_adduction_l/accel	/jointset/knee_l/knee_rotation_l/accel	/jointset/ankle_l/ankle_angle_l/accel	/jointset/subtalar_l/subtalar_angle_l/accel	gamma_cid13_p0	gamma_cid13_p1	gamma_cid13_p2	gamma_cid13_p3	gamma_cid13_p4	gamma_cid13_p5	gamma_cid14_p0
1.5	-0.03432190212680691	-0.03849372400093302	0.8535450586308763	0.7138726876539704	-0.3165019640122351	-0.1560801713939331	-0.7984370952549078	0.7041007903073371	0.7041007903073396	-0.1047366927324458	-0.1745326240387206	0.07617050457293484	0.003173466171868895	0.4367638498689443	0.2942599402589468	0.4099427263623283	-2.07954325569105	0.08993752548542076	-0.5895398953466955	0.8371962646568601	-1.806083918848764	-1.806083918848789	-0.1309247021366054	1.452321887359817e-06	-0.2632268747024629	0.01391180014319759	-0.2226812742914716	0.01295149680742448	-0.004218420844177726	-0.2040019326274071	0.1085482715104513	0.04710090925514963	0.2931795141618218	-7.57275890769646	-20.99322560970531	5.0208505616052	-11.01479324460657	-671.033607332549	-79.83839184028557	-17.85770239073195	0.07267713251792242	0.7441321284825096	-0.5690811303493125	-0.8029514901837075	0.3985365299819355	-0.2445583638788262	1.991826452996085	-0.8029948433413459	-0.802994843341346	-0.3097265037224609	0.04167516512576783	-0.04668908550122432	0.4007429362553989	8.154518496482711e-08	1.250709425172825e-06	-5.064975328346629e-08	1.414849619920637e-07	2.20952395672367e-07	1.811007149563074e-07	1.617694417252012e-07
1.51	-0.02995103371019227	-0.0355141847598011	0.8576152334639303	0.6930391601816084	-0.3155833651273179	-0.1619889653399599	-0.7899669334534203	0.6860020058184156	0.686002005818419	-0.106061739315303	-0.1745325870311362	0.0735362098332306	0.003331941020221878	0.4373473998759529	0.3016166423533959	0.4040108003239568	-2.086896490807345	0.09377477930723833	-0.5921585900881491	0.8567178677529442	-1.813426440024917	-1.813426440024924	-0.1340840592360486	6.730608887045344e-06	-0.2635735604474628	0.01779122096270749	-0.2145628786163289	0.01223798807767438	-0.004091585785396129	-0.2010071700186246	0.1078410423529635	0.04616552630381356	0.2856184799307423	-7.560537578763783	-20.64369520446187	5.027454006561135	-10.77062893253014	-666.5087122266217	-79.70774620632854	-18.46441354870654	0.04182344772798137	0.7267859304498362	-0.6174268418354484	-0.661653360809567	0.3749998584127139	-0.2613392424149117	1.914593054802967	-0.662931163730999	-0.6629311637284044	-0.3187097636310885	-0.01994243057748413	-0.01984045565543437	0.3825221642937612	5.984453345606042e-08	1.331528802070393e-06	3.649195877857987e-08	1.686299022540055e-07	1.988323872244705e-07	1.903448942612509e-07	1.581122402387647e-07
1.52	-0.02557620389091969	-0.03246200916161979	0.8616236533363498	0.6721400715903926	-0.3146266576941575	-0.1679221090760279	-0.7813051024575942	0.6678371860359348	0.6678371860359423	-0.1074183133592646	-0.1745324765589066	0.07090021180874501	0.00352940617866894	0.437556130400383	0.3087872116688273	0.3975917342354039	-2.092655479461923	0.09755923513429916	-0.5944098533550565	0.8755301035245585	-1.81929097756022	-1.81929097756021	-0.1372301943585263	1.614525330425006e-05	-0.2635675316587057	0.02170986216201607	-0.2064444829411854	0.01152447934792309	-0.003964750726576317	-0.1980124074098442	0.1071338131954746	0.04523014335247534	0.2780574456996636	-7.552364244397346	-20.2946468395958	5.035494429980655	-10.53980420961343	-662.0607108722505	-79.60473479705298	-19.05344809059564	-0.002286763997735022	0.7069055726789443	-0.66650914038557	-0.4841021978402052	0.3879769310305735	-0.1710720689696467	1.849952988102171	-0.5073981151712548	-0.507398115171257	-0.3070821083293778	0.04250243660923556	0.02385382125014806	0.408587012215113	4.131599362285179e-08	1.392058813315552e-06	1.077758325797896e-07	1.875264237375397e-07	1.836510813566868e-07	1.96369222743887e-07	1.536469980006826e-07
1.53	-0.02120120059693816	-0.02933913616071926	0.865565502514917	0.6511914717321781	-0.3136323415015906	-0.1738761099373745	-0.7724588086641287	0.6496211955407132	0.6496211955407196	-0.1088061041347065	-0.1745323619342378	0.06826606002172154	0.003766300379654887	0.4373802714894637	0.3157479661015286	0.3907026145150626	-2.096790100498897	0.1012913513283828	-0.5963267687329823	0.8935955585251225	-1.823652447929861	-1.823652447929853	-0.1403287979941106	7.062614793165879e-06	-0.2632040311487286	0.02567180668802115	-0.1982662851167501	0.01069111507198378	-0.003896776539976137	-0.1950801065949334	0.1063880011219926	0.04424910060809503	0.2704218038706293	-7.568971533066771	-19.92060683631829	5.038610872049189	-10.22989999949771	-657.7437400861227	-79.47974643257976	-19.62068801895813	-0.03488469688564791	0.6847876337042542	-0.7114020999981789	-0.3369953344191401	0.3637039933734882	-0.1923423390111674	1.764877259566279	-0.362349559366119	-0.3623495593663255	-0.3111093386603085	-0.02256708998580559	0.05145817903759304	0.390170309589094	2.615782244492357e-08	1.431031373555026e-06	1.622107532288606e-07	1.976590002690158e-07	1.758421469802728e-07	1.989724597278215e-07	1.483232124639774e-07
1.54	-0.01682988574051389	-0.02614783016446386	0.8694362027538527	0.630209755008036	-0.3126011291411281	-0.1798473481658632	-0.763435853219951	0.6313692247294984	0.6313692247294944	-0.1102248529160059	-0.1745323288311239	0.0656373152424307	0.004042848453260047	0.4368184428886741	0.3224738107398046	0.3833619463091276	-2.099278852647597	0.1049384687135185	-0.5978573267831933	0.9108624336669905	-1.826487040759722	-1.826487040759715	-0.1434217955291895	-1.590599000630443e-07	-0.262486130112108	0.02964063668586131	-0.1900880872923172	0.009857750796037273	-0.003828802353421158	-0.1921478057800229	0.1056421890485072	0.04326805786370572	0.2627861620415959	-7.590445596146769	-19.54616508455686	5.042177643422053	-9.926618898729613	-653.5129287799267	-79.37745493759697	-20.16257772693189	-0.07948070197175677	0.6599236137938456	-0.7568188375042936	-0.1549284201855572	0.3709771692409703	-0.09380060342668388	1.690237016362962	-0.2020226072150365	-0.2020226072150366	-0.305960888228301	0.04287462937276575	0.09473392657879477	0.4099641065821055	1.549281258575849e-08	1.446211531517108e-06	1.903514866507614e-07	2.01818649435855e-07	1.711222968647149e-07	2.010809721234416e-07	1.438413162416501e-07
